<?xml version="1.0" encoding="UTF-8"?>
<svg id="Ebene_1" xmlns="http://www.w3.org/2000/svg" xmlns:xlink="http://www.w3.org/1999/xlink" version="1.1" viewBox="0 0 153.1 68">
  <!-- Generator: Adobe Illustrator 29.2.0, SVG Export Plug-In . SVG Version: 2.1.0 Build 108)  -->
  <defs>
    <style>
      .st0 {
        fill: #fff;
      }

      .st1 {
        fill: #c9070a;
      }
    </style>
  </defs>
  <path class="st1" d="M34.8,45.3s-3.7-3.2-7-6c-6.7,5.5-16.4,13.8-16.4,13.8H1.3s10.7-8.6,17.5-14.1c1.3-1.1,2.8-2.3,4.3-3.6-5.9-4.8-13.2-10.6-13.2-10.6h11s3.8,3.3,7.3,6.3c4.1-3.4,7.4-6.3,7.4-6.3h10.1s-6.6,5.3-12.7,10.2c5.7,4.7,12.8,10.2,12.8,10.2h-11Z"/>
  <path class="st0" d="M66,35c0,3.9-2.6,7.1-6.5,7.1s-6.5-3.2-6.5-7.1.6-3.5,1.6-4.8h0c1.1-1.4,2.9-2.3,4.9-2.3s3.8.9,4.9,2.3h0c1,1.3,1.6,2.9,1.6,4.8M72.5,34.8c0-1.6-.3-3.2-.9-4.6-1.5-3.6-5-6.3-10.4-6.3s-6.6.9-8.4,3.6c0-.9,0-1.9-.2-2.8h-6c0,1.1.2,3.1.2,4.8v23.5h6.2v-10.6c2.1,2.8,5.4,3.6,8.4,3.6s11.1-2,11.1-11.2"/>
  <path class="st0" d="M92,35.9c0,4.9-4.7,6.7-7.7,6.7s-4.7-1.9-4.7-3.3c0-2.4,2.7-3.4,7.3-3.4h5.1ZM98.4,45.2c-.1-1.4-.2-2.5-.2-3.9v-8.6c0-.9-.1-1.8-.3-2.6h0c-1.3-5-6.4-6.3-11.4-6.3s-10.8,1.2-11.5,6.3c0,0,0,.2,0,.3h6.4c0,0,0-.2,0-.3h0c.4-1.5,2.1-2.6,4.9-2.6s4.5.6,5.3,2.6h0c.2.5.3,1.2.3,2h-4.9c-7.8,0-13.9,1.1-13.9,7.5s2.5,6.3,9.7,6.3,7.1-1,9.7-3.6c0,.9,0,1.9.2,2.8h5.8Z"/>
  <path class="st0" d="M124.3,45.3v-12.6c0-.9,0-1.7-.3-2.4h0c-1.2-4.8-5.9-6.3-9.1-6.3s-6.6,1.3-8.7,4.2c0-1.1,0-2.2-.2-3.4h-6c0,1.3.2,3.1.2,4.9v15.6h6.2v-9.9c0-2.3.6-3.9,1.7-5.1,1.2-1.4,3-2.1,4.7-2.1s3.5.5,4.4,2.1c.5.9.9,2.3.9,4.1v10.8h6.2,0Z"/>
  <path class="st0" d="M144.9,35c0,3.9-2.6,7.1-6.5,7.1s-1.9-.2-2.7-.6c-.4-.2-.8-.4-1.1-.7-.3-.3-.7-.5-.9-.9-.6-.6-1-1.4-1.3-2.3,0-.2-.1-.4-.2-.7-.2-.7-.3-1.4-.3-2.1,0-1.8.6-3.5,1.6-4.8h0c1.1-1.4,2.9-2.3,4.9-2.3s.5,0,.8,0c.7,0,1.4.3,2,.6.8.4,1.5,1,2.1,1.7h0c1,1.3,1.6,2.9,1.6,4.8M151.3,45.3c0-.9-.1-2.2-.1-3.5,0-.4,0-.9,0-1.3V15.8h-6.2v11.8c-2.1-2.8-5.4-3.6-8.4-3.6s-8.2,1.2-10.2,6.3c-.3.7-.5,1.4-.6,2.2-.2.8-.2,1.7-.2,2.7,0,1.4.2,2.8.7,4.1.2.6.5,1.3.9,1.8.4.6.8,1.1,1.2,1.6,1.9,2,4.7,3.3,8.5,3.3s6.6-.9,8.4-3.6c0,.9,0,1.9.2,2.8h6Z"/>
</svg>