<?xml version="1.0" encoding="UTF-8"?>
<svg id="Ebene_1" xmlns="http://www.w3.org/2000/svg" xmlns:xlink="http://www.w3.org/1999/xlink" version="1.1" viewBox="0 0 585.3 273">
  <!-- Generator: Adobe Illustrator 29.2.0, SVG Export Plug-In . SVG Version: 2.1.0 Build 108)  -->
  <defs>
    <style>
      .st0 {
        fill: #b80930;
      }

      .st1 {
        fill: #fff;
      }
    </style>
  </defs>
  <path class="st1" d="M84.1,80.7h3.5l-.2,5.2h.1c.9-1.6,3.1-5.9,9.1-5.9s11.7,6.2,11.7,14.9-3.9,14.9-11.7,14.9-7.1-1.8-8.9-5.5h-.1v16.5h-3.5v-40.1h0ZM96,83c-6.2,0-8.4,6.7-8.4,11.9s2.2,11.9,8.4,11.9,8.4-6.4,8.4-11.9-1.7-11.9-8.4-11.9Z"/>
  <path class="st1" d="M126.5,80c9.2,0,13.3,7.1,13.3,14.9s-4.1,14.9-13.3,14.9-13.3-7.1-13.3-14.9,4.1-14.9,13.3-14.9ZM126.5,106.8c6.1,0,9.4-5.3,9.4-11.9s-3.3-11.9-9.4-11.9-9.4,5.3-9.4,11.9c0,6.6,3.3,11.9,9.4,11.9Z"/>
  <path class="st1" d="M175.6,109.1h-4.2l-7.7-24.6h-.1l-7.7,24.6h-4.2l-9.1-28.4h3.8l7.5,24.6h.1l7.9-24.6h4.2l7.5,24.6h.1l7.9-24.6h3.5l-9.4,28.4Z"/>
  <path class="st1" d="M208.8,108.2c-2.5,1-5.6,1.6-8.2,1.6-9.4,0-12.9-6.4-12.9-14.9s4.8-14.9,12-14.9,11.3,6.5,11.3,14.1v1.8h-19.4c0,6,3.2,10.9,9.4,10.9s6.3-1.1,8-2.1v3.6h0ZM207.1,92.9c0-5-2-9.9-7.2-9.9s-8.4,5.2-8.4,9.9h15.6Z"/>
  <path class="st1" d="M217.7,87c0-3.1,0-4.3-.2-6.4h3.5v5.5h.1c1.3-3.2,3.7-6.1,7.3-6.1s1.8.2,2.5.3v3.7c-.7-.2-1.7-.3-2.6-.3-5.6,0-7.1,6.2-7.1,11.4v14h-3.5v-22.1h0Z"/>
  <path class="st1" d="M254.3,108.2c-2.5,1-5.6,1.6-8.2,1.6-9.4,0-12.9-6.4-12.9-14.9s4.8-14.9,12-14.9,11.3,6.5,11.3,14.1v1.8h-19.4c0,6,3.2,10.9,9.4,10.9s6.3-1.1,8-2.1v3.6h0ZM252.5,92.9c0-5-2-9.9-7.2-9.9s-8.4,5.2-8.4,9.9h15.6Z"/>
  <path class="st1" d="M285.6,109.1h-3.5v-4.5h-.1c-1.9,3.6-4.8,5.2-8.9,5.2-7.8,0-11.7-6.5-11.7-14.9s3.3-14.9,11.7-14.9,8.4,4.1,8.9,5.5h.1v-18.2h3.5v41.8ZM273.7,106.8c6.2,0,8.4-6.7,8.4-11.9s-2.2-11.9-8.4-11.9-8.4,6.4-8.4,11.9c0,5.5,1.7,11.9,8.4,11.9Z"/>
  <path class="st1" d="M309.2,67.3h3.5v18.2h.1c.5-1.4,3.3-5.5,8.9-5.5,8.4,0,11.7,6.2,11.7,14.9s-3.9,14.9-11.7,14.9-7-1.6-8.9-5.2h-.1v4.5h-3.5v-41.8ZM321.1,83c-6.4,0-8.4,6.7-8.4,11.9s2.2,11.9,8.4,11.9,8.4-6.4,8.4-11.9-1.7-11.9-8.4-11.9Z"/>
  <path class="st1" d="M348.5,104.4h0l8.2-23.7h3.7l-11.4,32.7c-1.3,3.9-3.3,7.8-7.3,7.8s-2.6-.2-3.8-.4l.3-3c.7.2,1.3.4,2.6.4,3,0,4-2.5,5.1-6.2l.7-2.5-10.1-28.8h3.8l8,23.7Z"/>
  <path class="st1" d="M499.3,97.6l-20.8-18.4c-5-4.4-8.2-10.9-9-18.2l-3.1-30c-.2-2.3-2.9-3-4.3-1.2l-17.8,24.4c-4.3,5.9-10.4,9.9-16.9,11.2l-27.2,5.4c-2.1.4-2.9,3.4-1.3,4.8l21.1,18.9c5,4.5,8.2,11,8.9,18.3l2.9,29.4c.2,2.3,2.9,3.1,4.3,1.2l17.8-24.3c4.3-5.9,10.4-9.9,16.9-11.2l27.2-5.4c2.1-.4,2.9-3.4,1.3-4.8h0Z"/>
  <path class="st0" d="M407.6,53.7l8.4-11.4c2-2.8,4.9-4.6,7.9-5.2l12.7-2.5c1-.2,1.4-1.6.6-2.3l-9.7-8.6c-2.3-2.1-3.9-5.1-4.2-8.5l-1.4-14.1c-.1-1.1-1.4-1.4-2-.5l-8.4,11.4c-2,2.8-4.8,4.6-7.9,5.2l-12.8,2.5c-1,.2-1.4,1.6-.6,2.3l9.9,8.8c2.3,2.1,3.8,5.2,4.2,8.6l1.4,13.8c.1,1.1,1.3,1.5,2,.5h0Z"/>
  <g>
    <path class="st1" d="M27.9,198L2.7,160.6h12.2l18.9,29.7,19.2-29.7h11.2l-24.7,37.5,27.3,42.1h-12.2l-20.9-34.3-22.3,34.3H0l27.9-42.1Z"/>
    <path class="st1" d="M79.4,160.6h9.8l-.6,14.5h.3c2.5-4.4,8.6-16.4,25.4-16.4s32.8,17.5,32.8,41.7-10.9,41.7-32.8,41.7-20-5.1-24.8-15.5h-.3v46.4h-9.8v-112.4ZM112.8,167.1c-17.5,0-23.6,18.7-23.6,33.2s6.1,33.2,23.6,33.2,23.6-17.8,23.6-33.2-4.8-33.2-23.6-33.2Z"/>
    <path class="st1" d="M212.9,227.4h-.3c-4.4,9.5-15.5,14.7-25.3,14.7-22.6,0-26.2-15.3-26.2-22.5,0-26.7,28.4-27.9,49-27.9h1.9v-4.1c0-13.6-4.8-20.4-18.1-20.4s-16.1,1.9-23.4,6.6v-9.5c6.1-3,16.4-5.5,23.4-5.5,19.7,0,27.9,8.9,27.9,29.7v35.1c0,6.4,0,11.2.8,16.7h-9.7v-12.8ZM211.9,200.1h-2.8c-17,0-37.3,1.7-37.3,19.2s7.5,14.4,16.5,14.4c23.1,0,23.6-20.1,23.6-28.7v-4.8h0Z"/>
    <path class="st1" d="M245.1,179.3c0-6.1,0-12.3-.6-18.7h9.5v14.2h.3c3.3-7.2,9.2-16.1,25.8-16.1s27.2,13.1,27.2,30.6v50.9h-9.8v-48.4c0-15-5.3-24.7-18.9-24.7s-23.6,15.8-23.6,29v44h-9.8v-60.9h0Z"/>
    <path class="st1" d="M395,240.2h-9.8v-12.6h-.3c-5.3,10.1-13.4,14.5-24.8,14.5-21.8,0-32.8-18.1-32.8-41.7s9.4-41.7,32.8-41.7,23.4,11.4,24.8,15.3h.3v-50.9h9.8v117ZM361.6,233.6c17.5,0,23.6-18.7,23.6-33.2s-6.1-33.2-23.6-33.2-23.6,17.8-23.6,33.2,4.8,33.2,23.6,33.2Z"/>
  </g>
  <g>
    <path class="st1" d="M483.9,131.3h24.7l42.8,108.9h-24.2l-9.4-25h-44.2l-9.5,25h-22.6l42.5-108.9ZM495.9,153.1h-.3l-15.8,44.9h31.8l-15.8-44.9Z"/>
    <path class="st1" d="M563.4,131.3h21.8v108.9h-21.8v-108.9Z"/>
  </g>
</svg>