<?xml version="1.0" encoding="utf-8"?>
<!-- Generator: Adobe Illustrator 28.2.0, SVG Export Plug-In . SVG Version: 6.00 Build 0)  -->
<svg version="1.1" id="Ebene_1" xmlns="http://www.w3.org/2000/svg" xmlns:xlink="http://www.w3.org/1999/xlink" x="0px" y="0px"
	 viewBox="312.955 437.305 585.293 272.955" enable-background="new 312.955 437.305 585.293 272.955" xml:space="preserve">
<g>
	<path fill="#1D2362" d="M397.076,517.982h3.51l-0.223,5.183h0.111c0.892-1.56,3.064-5.851,9.082-5.851
		c8.358,0,11.701,6.24,11.701,14.876c0,8.413-3.9,14.877-11.701,14.877c-4.457,0-7.132-1.839-8.859-5.516h-0.112v16.547h-3.51
		V517.982z M409,520.323c-6.24,0-8.414,6.686-8.414,11.867c0,5.183,2.173,11.868,8.414,11.868c6.686,0,8.413-6.352,8.413-11.868
		C417.413,526.675,415.686,520.323,409,520.323z"/>
	<path fill="#1D2362" d="M439.484,517.314c9.194,0,13.261,7.132,13.261,14.876c0,7.745-4.067,14.877-13.261,14.877
		c-9.193,0-13.26-7.132-13.26-14.877C426.224,524.446,430.291,517.314,439.484,517.314z M439.484,544.058
		c6.13,0,9.416-5.293,9.416-11.868c0-6.574-3.287-11.867-9.416-11.867c-6.128,0-9.417,5.293-9.417,11.867
		C430.068,538.764,433.356,544.058,439.484,544.058z"/>
	<path fill="#1D2362" d="M488.579,546.399h-4.234l-7.745-24.572h-0.112l-7.745,24.572h-4.234l-9.138-28.417h3.844l7.466,24.572
		h0.112l7.912-24.572h4.235l7.521,24.572h0.112l7.856-24.572h3.51L488.579,546.399z"/>
	<path fill="#1D2362" d="M521.798,545.507c-2.451,1.003-5.628,1.56-8.247,1.56c-9.416,0-12.926-6.352-12.926-14.877
		c0-8.692,4.792-14.876,11.979-14.876c8.023,0,11.311,6.464,11.311,14.097v1.783H504.47c0,6.017,3.231,10.864,9.36,10.864
		c2.562,0,6.295-1.058,7.967-2.117V545.507z M520.07,530.184c0-4.958-2.006-9.861-7.243-9.861c-5.183,0-8.357,5.182-8.357,9.861
		H520.07z"/>
	<path fill="#1D2362" d="M530.608,524.335c0-3.121,0-4.292-0.224-6.353h3.511v5.461h0.112c1.281-3.176,3.677-6.129,7.299-6.129
		c0.836,0,1.839,0.168,2.452,0.334v3.678c-0.724-0.224-1.672-0.336-2.564-0.336c-5.57,0-7.074,6.241-7.074,11.368v14.04h-3.511
		V524.335z"/>
	<path fill="#1D2362" d="M567.218,545.507c-2.451,1.003-5.628,1.56-8.247,1.56c-9.417,0-12.926-6.352-12.926-14.877
		c0-8.692,4.792-14.876,11.979-14.876c8.023,0,11.311,6.464,11.311,14.097v1.783h-19.445c0,6.017,3.23,10.864,9.36,10.864
		c2.564,0,6.296-1.058,7.967-2.117V545.507z M565.49,530.184c0-4.958-2.006-9.861-7.242-9.861c-5.183,0-8.357,5.182-8.357,9.861
		H565.49z"/>
	<path fill="#1D2362" d="M598.538,546.399h-3.51v-4.513h-0.112c-1.894,3.621-4.791,5.181-8.857,5.181
		c-7.802,0-11.702-6.463-11.702-14.877c0-8.636,3.344-14.876,11.702-14.876c5.571,0,8.357,4.068,8.857,5.46h0.112V504.61h3.51
		V546.399z M586.615,544.058c6.24,0,8.413-6.685,8.413-11.868c0-5.181-2.173-11.867-8.413-11.867c-6.686,0-8.413,6.352-8.413,11.867
		C578.202,537.706,579.929,544.058,586.615,544.058z"/>
	<path fill="#1D2362" d="M622.175,504.61h3.511v18.164h0.11c0.502-1.392,3.286-5.46,8.859-5.46c8.356,0,11.7,6.24,11.7,14.876
		c0,8.413-3.9,14.877-11.7,14.877c-4.068,0-6.965-1.56-8.859-5.181h-0.11v4.513h-3.511V504.61z M634.097,520.323
		c-6.406,0-8.411,6.686-8.411,11.867c0,5.183,2.172,11.868,8.411,11.868c6.687,0,8.414-6.352,8.414-11.868
		C642.511,526.675,640.783,520.323,634.097,520.323z"/>
	<path fill="#1D2362" d="M661.406,541.662h0.058l8.189-23.681h3.678l-11.367,32.651c-1.336,3.9-3.342,7.8-7.298,7.8
		c-1.283,0-2.619-0.167-3.79-0.445l0.335-3.008c0.668,0.223,1.338,0.445,2.619,0.445c3.009,0,4.011-2.507,5.126-6.185l0.725-2.508
		l-10.085-28.75h3.845L661.406,541.662z"/>
</g>
<g>
	<path fill="#1D2362" d="M812.223,534.86l-20.773-18.374c-5.021-4.433-8.216-10.946-8.961-18.193l-3.087-30.045
		c-0.238-2.331-2.878-3.045-4.267-1.158l-17.839,24.378c-4.306,5.893-10.362,9.877-16.924,11.174l-27.238,5.378
		c-2.112,0.42-2.913,3.398-1.302,4.822l21.1,18.875c5.002,4.469,8.177,10.99,8.882,18.263l2.892,29.435
		c0.217,2.344,2.877,3.065,4.262,1.158l17.814-24.33c4.31-5.895,10.366-9.879,16.923-11.172l27.203-5.372
		C813.016,539.283,813.83,536.284,812.223,534.86L812.223,534.86z"/>
	<path fill="#B80930" d="M720.554,490.996l8.352-11.414c2.011-2.761,4.851-4.637,7.933-5.235l12.748-2.51
		c0.997-0.203,1.372-1.609,0.618-2.264l-9.739-8.607c-2.35-2.073-3.857-5.125-4.201-8.53l-1.441-14.086
		c-0.118-1.088-1.355-1.424-1.994-0.535l-8.359,11.429c-2.017,2.76-4.847,4.632-7.93,5.235l-12.775,2.523
		c-0.988,0.203-1.362,1.589-0.609,2.26l9.897,8.849c2.342,2.088,3.83,5.155,4.157,8.554l1.367,13.791
		c0.113,1.095,1.35,1.45,1.99,0.542L720.554,490.996z"/>
</g>
<g>
	<path fill="#1D2362" d="M340.89,635.352l-25.283-37.457h12.174l18.883,29.654l19.196-29.654h11.236l-24.658,37.457l27.31,42.136
		h-12.172l-20.913-34.333l-22.317,34.333h-11.392L340.89,635.352z"/>
	<path fill="#1D2362" d="M392.382,597.895h9.833l-0.625,14.515h0.312c2.496-4.369,8.584-16.387,25.438-16.387
		c23.411,0,32.773,17.479,32.773,41.67c0,23.564-10.924,41.668-32.773,41.668c-12.485,0-19.977-5.148-24.813-15.451h-0.312v46.351
		h-9.833V597.895z M425.781,604.449c-17.479,0-23.566,18.729-23.566,33.243c0,14.515,6.087,33.24,23.566,33.24
		c18.727,0,23.565-17.79,23.565-33.24S444.508,604.449,425.781,604.449z"/>
	<path fill="#1D2362" d="M525.806,664.692h-0.312c-4.37,9.521-15.45,14.669-25.282,14.669c-22.629,0-26.219-15.294-26.219-22.474
		c0-26.686,28.404-27.935,49.004-27.935h1.873v-4.058c0-13.578-4.837-20.444-18.103-20.444c-8.272,0-16.075,1.873-23.41,6.556
		v-9.521c6.086-2.965,16.387-5.462,23.41-5.462c19.664,0,27.936,8.895,27.936,29.653v35.113c0,6.4,0,11.236,0.78,16.698h-9.677
		V664.692z M524.871,637.379h-2.809c-17.01,0-37.299,1.718-37.299,19.196c0,10.457,7.491,14.357,16.543,14.357
		c23.098,0,23.565-20.133,23.565-28.715V637.379z"/>
	<path fill="#1D2362" d="M558.105,616.623c0-6.086,0-12.328-0.625-18.729h9.52v14.203h0.312c3.278-7.18,9.207-16.075,25.751-16.075
		c19.664,0,27.155,13.109,27.155,30.59v50.875h-9.833v-48.379c0-14.981-5.305-24.659-18.883-24.659
		c-17.947,0-23.566,15.765-23.566,29.029v44.009h-9.831V616.623z"/>
	<path fill="#1D2362" d="M707.917,677.488h-9.834v-12.642h-0.31c-5.308,10.146-13.422,14.515-24.815,14.515
		c-21.848,0-32.773-18.104-32.773-41.668c0-24.19,9.364-41.67,32.773-41.67c15.606,0,23.408,11.392,24.815,15.293h0.31V560.44h9.834
		V677.488z M674.519,670.933c17.479,0,23.564-18.726,23.564-33.24c0-14.514-6.086-33.243-23.564-33.243
		c-18.729,0-23.567,17.793-23.567,33.243S655.79,670.933,674.519,670.933z"/>
</g>
<g>
	<path fill="#1D2362" d="M796.823,568.556h24.655l42.762,108.932h-24.189l-9.363-24.97h-44.167l-9.518,24.97H754.37L796.823,568.556
		z M808.839,590.404h-0.314l-15.762,44.948H824.6L808.839,590.404z"/>
	<path fill="#1D2362" d="M876.4,568.556h21.849v108.932H876.4V568.556z"/>
</g>
</svg>
