<?xml version="1.0" encoding="utf-8"?>
<!-- Generator: Adobe Illustrator 29.1.0, SVG Export Plug-In . SVG Version: 9.03 Build 55587)  -->
<svg version="1.0" id="Ebene_1" xmlns="http://www.w3.org/2000/svg" xmlns:xlink="http://www.w3.org/1999/xlink" x="0px" y="0px"
	 viewBox="0 0 153.07 68.03" enable-background="new 0 0 153.07 68.03" xml:space="preserve">
<g>
	<path fill="#C9070A" d="M34.788,45.286c0,0-3.675-3.183-6.968-5.984c-6.667,5.506-16.436,13.772-16.436,13.772H1.315
		c0,0,10.698-8.58,17.474-14.141c1.325-1.093,2.801-2.309,4.304-3.566C17.191,30.531,9.895,24.792,9.895,24.792h11.039
		c0,0,3.839,3.306,7.323,6.257c4.099-3.443,7.446-6.257,7.446-6.257h10.069c0,0-6.626,5.287-12.733,10.247
		c5.697,4.673,12.788,10.247,12.788,10.247S34.788,45.286,34.788,45.286z"/>
	<path fill="#1A2162" d="M66.048,35.012c0,3.866-2.61,7.091-6.517,7.091S53,38.878,53,35.012c0-1.817,0.574-3.498,1.585-4.755l0,0
		c1.148-1.435,2.855-2.336,4.932-2.336c2.077,0,3.784,0.902,4.932,2.336l0,0c1.011,1.271,1.585,2.937,1.585,4.755 M72.483,34.848
		c0-1.612-0.287-3.183-0.874-4.591C70.105,26.623,66.649,24,61.184,24c-3.265,0-6.599,0.943-8.443,3.593
		c0-0.943-0.082-1.872-0.164-2.814H46.62c0.082,1.148,0.164,3.142,0.164,4.809v23.486h6.203l0.082-10.643
		c2.036,2.773,5.301,3.593,8.361,3.593C65.419,46.024,72.483,44.029,72.483,34.848"/>
	<path fill="#1A2162" d="M92.006,35.914c-0.082,4.891-4.686,6.681-7.747,6.681c-3.552,0-4.686-1.872-4.686-3.265
		c0-2.446,2.651-3.429,7.337-3.429h5.096L92.006,35.914z M98.373,45.245c-0.123-1.38-0.164-2.528-0.164-3.866v-8.566
		c0-0.943-0.109-1.79-0.301-2.555l0,0C96.638,25.23,91.501,24,86.5,24s-10.766,1.216-11.545,6.257
		c-0.014,0.082-0.027,0.178-0.041,0.273h6.435c0.014-0.096,0.027-0.178,0.055-0.273l0,0c0.383-1.462,2.077-2.582,4.918-2.582
		c2.432,0,4.536,0.574,5.328,2.582l0,0c0.219,0.546,0.328,1.202,0.328,1.981h-4.932c-7.829,0-13.949,1.107-13.949,7.501
		c0,2.937,2.487,6.285,9.659,6.285c3.948,0,7.132-1.025,9.7-3.593c0,0.943,0.041,1.872,0.164,2.814h5.711L98.373,45.245z"/>
	<path fill="#1A2162" d="M124.332,45.259V32.662c0-0.874-0.096-1.667-0.273-2.391l0,0c-1.189-4.755-5.916-6.257-9.099-6.257
		c-3.744,0-6.558,1.271-8.73,4.153c0-1.148-0.082-2.241-0.164-3.388h-5.957c0.082,1.312,0.164,3.06,0.164,4.85v15.616h6.203v-9.864
		c0-2.254,0.642-3.948,1.653-5.123c1.216-1.421,2.951-2.09,4.714-2.09c1.885,0,3.498,0.478,4.44,2.09
		c0.547,0.943,0.861,2.282,0.861,4.14v10.848h6.203L124.332,45.259z"/>
	<path fill="#1A2162" d="M144.948,35.026c0,3.866-2.61,7.091-6.517,7.091c-0.984,0-1.872-0.205-2.664-0.56
		c-0.396-0.178-0.765-0.41-1.12-0.656c-0.342-0.26-0.656-0.546-0.943-0.874c-0.574-0.642-1.025-1.407-1.325-2.254
		c-0.082-0.205-0.15-0.424-0.205-0.656c-0.178-0.669-0.26-1.366-0.26-2.09c0-1.817,0.574-3.498,1.585-4.755l0,0
		c1.148-1.435,2.855-2.336,4.932-2.336c0.26,0,0.519,0,0.765,0.041c0.738,0.082,1.435,0.287,2.049,0.587
		c0.833,0.41,1.544,0.997,2.118,1.708l0,0C144.374,31.528,144.948,33.209,144.948,35.026 M151.315,45.259
		c-0.068-0.861-0.123-2.2-0.15-3.511c0-0.437-0.014-0.874-0.014-1.298V15.816h-6.203l-0.082,11.777
		C142.831,24.82,139.565,24,136.505,24s-8.197,1.243-10.192,6.257c-0.273,0.669-0.478,1.421-0.628,2.241
		c-0.15,0.82-0.232,1.708-0.232,2.678c0,1.448,0.232,2.842,0.697,4.14c0.232,0.642,0.519,1.257,0.874,1.844
		c0.355,0.574,0.765,1.12,1.23,1.612c1.872,1.981,4.7,3.252,8.484,3.252c3.265,0,6.599-0.943,8.443-3.593
		c0,0.943,0.082,1.872,0.164,2.814h5.957L151.315,45.259z"/>
</g>
</svg>
